<svg width="154" height="168" viewBox="0 0 154 168" fill="none" xmlns="http://www.w3.org/2000/svg">
<path d="M81.8125 48.4502V59.0377L90.9851 53.7439L95.7976 62.0888L86.625 67.3729L95.7976 72.6667L90.9851 81.002L81.8125 75.7082V86.2957H72.1875V75.7082L63.0149 81.002L58.2024 72.6667L67.375 67.3729L58.2024 62.0792L63.0149 53.7439L72.1875 59.0377V48.4502H81.8125ZM127.531 86.623C126.893 86.623 126.281 86.8765 125.83 87.3277C125.379 87.779 125.125 88.391 125.125 89.0292V93.8417C125.125 95.17 126.203 96.248 127.531 96.248H132.344C132.982 96.248 133.594 95.9944 134.045 95.5432C134.496 95.0919 134.75 94.4799 134.75 93.8417V89.0292C134.75 88.391 134.496 87.779 134.045 87.3277C133.594 86.8765 132.982 86.623 132.344 86.623H127.531ZM125.125 108.279C125.125 107.641 125.379 107.029 125.83 106.578C126.281 106.126 126.893 105.873 127.531 105.873H132.344C132.982 105.873 133.594 106.126 134.045 106.578C134.496 107.029 134.75 107.641 134.75 108.279V113.092C134.75 113.73 134.496 114.342 134.045 114.793C133.594 115.244 132.982 115.498 132.344 115.498H127.531C126.893 115.498 126.281 115.244 125.83 114.793C125.379 114.342 125.125 113.73 125.125 113.092V108.279ZM127.531 125.123C126.893 125.123 126.281 125.376 125.83 125.828C125.379 126.279 125.125 126.891 125.125 127.529V132.342C125.125 133.67 126.203 134.748 127.531 134.748H132.344C132.982 134.748 133.594 134.494 134.045 134.043C134.496 133.592 134.75 132.98 134.75 132.342V127.529C134.75 126.891 134.496 126.279 134.045 125.828C133.594 125.376 132.982 125.123 132.344 125.123H127.531ZM21.6562 86.623C21.0181 86.623 20.406 86.8765 19.9548 87.3277C19.5035 87.779 19.25 88.391 19.25 89.0292V93.8417C19.25 95.17 20.328 96.248 21.6562 96.248H26.4688C27.1069 96.248 27.719 95.9944 28.1702 95.5432C28.6215 95.0919 28.875 94.4799 28.875 93.8417V89.0292C28.875 88.391 28.6215 87.779 28.1702 87.3277C27.719 86.8765 27.1069 86.623 26.4688 86.623H21.6562ZM21.6562 105.873C21.0181 105.873 20.406 106.126 19.9548 106.578C19.5035 107.029 19.25 107.641 19.25 108.279V113.092C19.25 114.42 20.328 115.498 21.6562 115.498H26.4688C27.1069 115.498 27.719 115.244 28.1702 114.793C28.6215 114.342 28.875 113.73 28.875 113.092V108.279C28.875 107.641 28.6215 107.029 28.1702 106.578C27.719 106.126 27.1069 105.873 26.4688 105.873H21.6562ZM19.25 127.529C19.25 126.891 19.5035 126.279 19.9548 125.828C20.406 125.376 21.0181 125.123 21.6562 125.123H26.4688C27.1069 125.123 27.719 125.376 28.1702 125.828C28.6215 126.279 28.875 126.891 28.875 127.529V132.342C28.875 132.98 28.6215 133.592 28.1702 134.043C27.719 134.494 27.1069 134.748 26.4688 134.748H21.6562C21.0181 134.748 20.406 134.494 19.9548 134.043C19.5035 133.592 19.25 132.98 19.25 132.342V127.529Z" fill="#ADD7FF"/>
<path d="M48.125 9.625C48.125 7.07229 49.1391 4.62414 50.9441 2.8191C52.7491 1.01406 55.1973 0 57.75 0L96.25 0C98.8027 0 101.251 1.01406 103.056 2.8191C104.861 4.62414 105.875 7.07229 105.875 9.625V19.25C108.428 19.25 110.876 20.2641 112.681 22.0691C114.486 23.8741 115.5 26.3223 115.5 28.875V67.375H144.375C146.928 67.375 149.376 68.3891 151.181 70.1941C152.986 71.9991 154 74.4473 154 77V144.375C154 146.928 152.986 149.376 151.181 151.181C149.376 152.986 146.928 154 144.375 154H9.625C7.07229 154 4.62414 152.986 2.8191 151.181C1.01406 149.376 0 146.928 0 144.375V77C0 74.4473 1.01406 71.9991 2.8191 70.1941C4.62414 68.3891 7.07229 67.375 9.625 67.375H38.5V28.875C38.5 26.3223 39.5141 23.8741 41.3191 22.0691C43.1241 20.2641 45.5723 19.25 48.125 19.25V9.625ZM67.375 144.375H86.625V115.5H67.375V144.375ZM96.25 144.375H105.875V28.875H48.125V144.375H57.75V115.5C57.75 112.947 58.7641 110.499 60.5691 108.694C62.3741 106.889 64.8223 105.875 67.375 105.875H86.625C89.1777 105.875 91.6259 106.889 93.4309 108.694C95.2359 110.499 96.25 112.947 96.25 115.5V144.375ZM96.25 9.625H57.75V19.25H96.25V9.625ZM115.5 77V144.375H144.375V77H115.5ZM38.5 144.375V77H9.625V144.375H38.5Z" fill="#ADD7FF"/>
</svg>
