<svg width="20" height="40" viewBox="0 0 20 40" fill="none" xmlns="http://www.w3.org/2000/svg">
<path fill-rule="evenodd" clip-rule="evenodd" d="M12.5 1.99997H10.5V3.99997H15.5V6.00002H10.5V8.08292C13.3377 8.55902 15.5 11.027 15.5 14V16H3.5V14C3.5 11.027 5.6623 8.55902 8.5 8.08292V6.00002H6.3293C5.9175 7.16512 4.8062 8.00002 3.5 8.00002C1.84315 8.00002 0.5 6.65682 0.5 4.99997C0.5 3.34312 1.84315 1.99997 3.5 1.99997C4.8062 1.99997 5.9175 2.83478 6.3293 3.99997H8.5V1.99997H6.5V-3.05176e-05H12.5V1.99997ZM3.5 18V39C3.5 39.5522 3.9477 40 4.5 40H14.5C15.0523 40 15.5 39.5522 15.5 39V18H3.5ZM3.5 3.99997C2.94772 3.99997 2.5 4.44769 2.5 4.99997C2.5 5.55226 2.94772 6.00002 3.5 6.00002C4.0523 6.00002 4.5 5.55226 4.5 4.99997C4.5 4.44769 4.0523 3.99997 3.5 3.99997Z" fill="#0D4F8C"/>
</svg>
