<svg width="60" height="34" viewBox="0 0 60 34" fill="none" xmlns="http://www.w3.org/2000/svg">
<path d="M48.8438 4.4375H32.0938C30.9835 4.43877 29.9192 4.88036 29.1341 5.6654C28.3491 6.45043 27.9075 7.5148 27.9062 8.625V21.1875H4.875V0.25H0.6875V33.75H4.875V25.375H55.125V33.75H59.3125V14.9062C59.3092 12.1308 58.2052 9.4699 56.2427 7.50734C54.2801 5.54477 51.6192 4.44077 48.8438 4.4375ZM55.125 21.1875H32.0938V8.625H48.8438C50.5091 8.62683 52.1057 9.28919 53.2832 10.4668C54.4608 11.6443 55.1232 13.2409 55.125 14.9062V21.1875Z" fill="#0D4F8C"/>
<path d="M16.3906 6.53125C17.0118 6.53125 17.619 6.71545 18.1355 7.06054C18.6519 7.40564 19.0545 7.89614 19.2922 8.47001C19.5299 9.04389 19.5921 9.67536 19.4709 10.2846C19.3497 10.8938 19.0506 11.4534 18.6114 11.8926C18.1722 12.3319 17.6126 12.631 17.0033 12.7522C16.3941 12.8733 15.7626 12.8111 15.1888 12.5734C14.6149 12.3357 14.1244 11.9332 13.7793 11.4167C13.4342 10.9002 13.25 10.293 13.25 9.67188C13.2509 8.83922 13.5821 8.04094 14.1709 7.45216C14.7597 6.86338 15.558 6.53219 16.3906 6.53125ZM16.3906 2.34375C14.9413 2.34375 13.5244 2.77354 12.3193 3.57876C11.1142 4.38399 10.175 5.52848 9.62032 6.86752C9.06568 8.20656 8.92055 9.68 9.20331 11.1015C9.48607 12.523 10.184 13.8288 11.2089 14.8536C12.2337 15.8785 13.5395 16.5764 14.961 16.8592C16.3825 17.1419 17.8559 16.9968 19.195 16.4422C20.534 15.8875 21.6785 14.9483 22.4837 13.7432C23.289 12.5381 23.7188 11.1212 23.7188 9.67188C23.7188 7.72834 22.9467 5.8644 21.5724 4.49011C20.1981 3.11582 18.3342 2.34375 16.3906 2.34375Z" fill="#0D4F8C"/>
</svg>
